<svg viewBox="0 0 437.9427 228.0065" width="5000px" height="2603.1545507872684px" xmlns="http://www.w3.org/2000/svg" xmlns:xlink="http://www.w3.org/1999/xlink" preserveAspectRatio="none"><defs></defs><style>.companyName {fill:#606060;fill-opacity:1;}.icon1 {fill:#606060;fill-opacity:1;}.icon2 {fill:#000000;fill-opacity:1;}.icon3 {fill:#000000;fill-opacity:1;}</style><g opacity="1" transform="rotate(0 154.1039 0)">
<svg width="129.7192" height="159.6544" x="154.1039" y="0" version="1.1" preserveAspectRatio="none" viewBox="11.999896049499512 0 104.00020599365234 128">
  <g transform="matrix(1 0 0 1 0 0)" class="icon1"><title>miscellaneous47 solid</title><circle cx="64" cy="25" r="25"></circle><path d="M15.5332,98.99414a5.9734,5.9734,0,0,1,.55023-.52356A2.43071,2.43071,0,0,1,16,97.86719V74.7832C16,60.32532,27.03918,49,41.13177,49h6.60834A29.218,29.218,0,0,1,43.03,45H41.13177C25.042,45,12,57.83978,12,74.7832v23.084a6.252,6.252,0,0,0,2.02539,4.64294A5.995,5.995,0,0,1,15.5332,98.99414Z"></path><path d="M86.86816,45H84.97a29.218,29.218,0,0,1-4.71008,4h6.60828C100.96082,49,112,60.32532,112,74.7832v23.084a2.43158,2.43158,0,0,1-.08337.60345,5.75151,5.75151,0,0,1,2.058,4.03906A6.25275,6.25275,0,0,0,116,97.86719V74.7832C116,57.83978,102.95612,45,86.86816,45Z"></path><path d="M87,126a2.0001,2.0001,0,0,0-2-2H43a2,2,0,0,0,0,4H85A2.0001,2.0001,0,0,0,87,126Z"></path><path d="M20,101a2.00017,2.00017,0,0,0-1.98828,2.2168A17.899,17.899,0,0,0,36,119a17.899,17.899,0,0,0,17.98828-15.7832A2.00017,2.00017,0,0,0,52,101H50.52423L38.65759,72H61.97607v46H54a2,2,0,0,0,0,4H74a2,2,0,0,0,0-4H65.97607V72H89.34241L77.47577,101H76a2.00017,2.00017,0,0,0-1.98828,2.2168,18.14232,18.14232,0,0,0,35.97656,0A2.00017,2.00017,0,0,0,108,101h-1.47577L94.65759,72H99a2,2,0,0,0,0-4H65.97607V64.58917a5.00592,5.00592,0,1,0-4-.026V68H29a2,2,0,0,0,0,4h4.34241L21.47577,101ZM94,80.95508,102.20227,101H94ZM90,101H81.79773L90,80.95508ZM64,59a1,1,0,1,1-1,1A1.0013,1.0013,0,0,1,64,59ZM38,80.95508,46.20227,101H38Zm-4,0V101H25.79773Z"></path><circle cx="20" cy="30" r="6"></circle><circle cx="108" cy="30" r="6"></circle></g>
</svg>
</g><g opacity="1" transform="rotate(0 0 192.5832)">
<svg width="437.9427" height="35.4233" x="0" y="192.5832" version="1.1" preserveAspectRatio="none" viewBox="2.5 -28.8281 462.0035 37.3828">
  <g transform="matrix(1 0 0 1 0 0)" class="companyName"><path d="M19.32-22.56L19.32-22.56Q19.32-20.66 18.50-20.66Q17.68-20.66 16.75-22.34Q15.82-24.02 14.48-24.82Q13.14-25.63 11.04-25.63Q8.93-25.63 7.62-24.52Q6.31-23.42 6.31-21.46Q6.31-19.49 8.11-18.01L8.11-18.01Q9.22-17.07 13.02-15.43Q16.82-13.79 18.63-11.90Q20.45-10.02 20.45-6.91Q20.45-3.81 17.89-1.84Q15.33 0.14 11.41 0.14L11.41 0.14L10.68 0.14Q9.24 0.14 7.63-0.23Q6.02-0.61 5.05-0.77Q4.08-0.94 3.63-1.13L3.63-1.13Q2.50-1.66 2.50-4.22L2.50-4.22L2.50-4.88Q2.50-7.50 3.69-7.50L3.69-7.50Q4.22-7.50 5.11-5.72Q6.00-3.95 6.80-3.30L6.80-3.30Q8.81-1.70 11.46-1.70Q14.10-1.70 15.44-2.92Q16.78-4.14 16.78-5.60Q16.78-7.05 16.37-7.95Q15.96-8.85 14.88-9.70Q13.81-10.55 10.06-12.26Q6.31-13.96 4.86-15.35L4.86-15.35Q2.73-17.40 2.73-20.57Q2.73-23.73 5.20-25.61Q7.66-27.48 11.19-27.48L11.19-27.48Q12.66-27.48 14.59-27.10Q16.52-26.72 17.45-26.72Q18.38-26.72 18.85-26.11Q19.32-25.51 19.32-22.56Z M26.01-17.44L26.01-17.44Q26.01-17.89 27.00-18.44Q27.98-18.98 28.27-19.38Q28.55-19.79 29.26-21.78Q29.98-23.77 30.77-23.77Q31.56-23.77 31.83-23.14L31.83-23.14Q31.95-22.85 32.12-21.55Q32.30-20.25 32.77-19.72Q33.24-19.18 35.02-18.77Q36.79-18.36 36.79-17.65Q36.79-16.93 34.86-16.63Q32.93-16.33 32.59-15.74L32.59-15.74Q31.97-14.67 31.97-9.68Q31.97-4.69 32.51-3.45Q33.04-2.21 34.16-2.21L34.16-2.21Q34.78-2.21 35.87-2.55Q36.95-2.89 37.16-2.89L37.16-2.89Q37.81-2.89 37.81-2.13L37.81-2.13Q37.81-1.19 35.74-0.27L35.74-0.27Q34.55 0.25 33.23 0.25Q31.91 0.25 30.83-0.35Q29.74-0.96 29.18-2.03L29.18-2.03Q28.34-3.61 28.34-8.73L28.34-8.73L28.34-10.35L28.30-11.91Q28.30-14.39 27.92-15.31Q27.53-16.23 27.05-16.54L27.05-16.54Q26.01-17.19 26.01-17.44Z M62.98-1.00L62.98-1.00Q62.98-0.72 62.30-0.30Q61.61 0.12 60.01 0.12Q58.41 0.12 57.96-0.20Q57.51-0.51 57.19-1.33Q56.87-2.15 56.60-2.15Q56.34-2.15 55.48-1.52L55.48-1.52Q52.92 0.33 50.69 0.33L50.69 0.33Q50.68 0.33 50.66 0.33L50.66 0.33L50.07 0.33Q46.83 0.33 45.40-2.36L45.40-2.36Q44.66-3.77 44.66-9.59Q44.66-15.41 44.42-15.91Q44.17-16.41 43.15-16.76Q42.12-17.11 42.12-17.68L42.12-17.68L42.32-18.01Q43.16-18.71 46.59-18.71L46.59-18.71Q47.96-18.71 48.19-17.44L48.19-17.44Q48.55-15.49 48.55-10.27L48.55-10.27Q48.55-5.08 49.05-3.98L49.05-3.98Q49.95-2.07 52.02-2.07L52.02-2.07Q53.19-2.07 54.43-2.69Q55.66-3.30 56.25-4.36Q56.85-5.41 56.85-10.21Q56.85-15 56.67-15.68Q56.50-16.37 55.77-16.89L55.77-16.89Q55.03-17.42 55.03-17.89L55.03-17.89Q55.03-18.65 59.13-18.65L59.13-18.65Q60.13-18.65 60.47-18.29Q60.81-17.93 60.81-16.89L60.81-16.89L60.79-16.33L60.71-15.20L60.62-9.96Q60.62-4.61 60.89-3.53Q61.16-2.44 62.07-1.97Q62.98-1.50 62.98-1.00Z M68.29-17.15L68.29-17.15Q68.29-18.38 72.68-18.38L72.68-18.38Q74.40-18.38 74.40-17.70L74.40-17.70Q74.40-17.50 74.13-16.99Q73.85-16.48 73.85-16.23L73.85-16.23Q73.85-14.92 77.31-6.21L77.31-6.21Q77.90-4.75 78.31-4.75L78.31-4.75Q78.54-4.75 79.44-6.62Q80.34-8.50 81.32-11.57Q82.29-14.65 82.29-15.52Q82.29-16.39 81.64-17.11Q80.98-17.83 80.98-18.13L80.98-18.13Q80.98-18.67 83.29-18.67L83.29-18.67L84.54-18.67Q86.90-18.67 86.90-17.87L86.90-17.87Q86.90-17.48 86.00-16.49Q85.10-15.51 84.78-14.82Q84.46-14.14 83.10-10.36Q81.75-6.58 81.35-5.53L81.35-5.53Q79.13 0.55 77.53 3.36L77.53 3.36Q74.60 8.55 71.75 8.55L71.75 8.55Q70.67 8.55 69.98 8.06Q69.28 7.56 69.28 7.07L69.28 7.07Q69.28 5.61 70.57 5.61L70.57 5.61L72.86 5.90Q74.07 5.90 75.18 3.89Q76.30 1.88 76.30 0L76.30 0Q76.30-0.92 72.62-8.81L72.62-8.81Q71.84-10.51 71.33-11.74Q70.81-12.97 70.50-13.62Q70.18-14.28 69.24-15.52Q68.29-16.76 68.29-17.15Z M98.40-17.79L98.40-17.79Q98.40-17.52 97.95-17.11Q97.50-16.70 97.50-16.16Q97.50-15.63 99.09-10.96Q100.69-6.29 101.13-5.32Q101.57-4.36 101.90-4.36L101.90-4.36Q102.05-4.36 102.89-6.13L102.89-6.13Q106.16-12.99 106.16-15.53L106.16-15.53Q106.16-16.17 105.47-16.94Q104.79-17.71 104.79-17.93L104.79-17.93Q104.79-18.63 108.28-18.63L108.28-18.63L108.75-18.63Q111.14-18.63 111.14-17.87L111.14-17.87Q111.14-17.29 110.10-16.64Q109.07-16.00 108.66-15.23L108.66-15.23Q108.48-14.92 106.21-9.32Q103.95-3.71 102.94-1.74Q101.94 0.23 100.85 0.23Q99.77 0.23 98.73-1.88Q97.70-3.98 96.09-8.62Q94.48-13.26 93.46-15.16L93.46-15.16Q92.91-16.17 91.86-16.75Q90.80-17.32 90.80-17.89L90.80-17.89Q90.80-18.59 95.14-18.59L95.14-18.59L97.01-18.55Q98.40-18.55 98.40-17.79Z M120.33-11.07L120.33-11.07L120.84-11.07L124.57-11.33Q125.25-11.43 125.57-11.43L125.57-11.43Q126.85-11.43 127.36-11.93L127.36-11.93Q127.58-12.15 127.58-12.95L127.58-12.95Q127.58-14.80 126.49-16.03Q125.41-17.25 123.89-17.25L123.89-17.25L123.50-17.25Q121.74-17.25 120.36-15.72Q118.98-14.20 118.98-12.29L118.98-12.29L118.94-12.03L118.94-11.91Q118.94-11.15 119.76-11.15L119.76-11.15Q120.16-11.07 120.33-11.07ZM118.83-7.79L118.83-7.79Q118.83-5.08 120.57-3.52Q122.30-1.95 125.14-1.95L125.14-1.95Q126.31-1.95 128.22-2.83Q130.14-3.71 130.19-3.71L130.19-3.71Q130.88-3.71 130.88-3.07L130.88-3.07Q130.88-1.86 128.16-0.53L128.16-0.53Q126.31 0.37 124.20 0.37L124.20 0.37L123.75 0.37Q119.61 0.37 117.26-2.22Q114.92-4.80 114.92-8.96L114.92-8.96L114.92-9.41Q114.92-9.45 114.92-9.51L114.92-9.51Q114.92-11.23 115.60-12.97L115.60-12.97Q117.05-16.70 120.19-18.11L120.19-18.11Q122.17-18.98 123.81-18.98L123.81-18.98L124.67-18.98Q127.23-18.98 129.12-17.34L129.12-17.34Q130.14-16.46 130.70-15.12Q131.27-13.77 131.27-12.73L131.27-12.73L131.27-12.32Q131.27-10.84 130.06-10.33L130.06-10.33Q129.35-10.04 124.95-9.73Q120.55-9.41 120.00-9.26L120.00-9.26Q118.83-8.93 118.83-7.79Z M151.01-5.33L151.01-5.33L151.01-4.80Q151.01-3.85 150.50-2.80Q149.99-1.76 148.96-1.04L148.96-1.04Q147.03 0.33 144.19 0.33L144.19 0.33L143.67 0.33Q139.99 0.33 138.06-0.68L138.06-0.68Q137.14-1.17 137.14-3.03L137.14-3.03L137.14-3.50Q137.14-5.51 138.22-5.51L138.22-5.51Q138.73-5.51 139.55-4.13Q140.37-2.75 140.95-2.29L140.95-2.29Q142.12-1.35 144.02-1.35Q145.91-1.35 146.80-2.17Q147.69-2.99 147.69-4.21Q147.69-5.43 146.48-6.37L146.48-6.37Q145.74-6.93 142.84-8.17Q139.94-9.41 138.75-10.63Q137.57-11.86 137.57-13.96Q137.57-16.07 139.39-17.52Q141.21-18.96 144.00-18.96L144.00-18.96L144.53-18.96Q148.16-18.96 149.58-18.05L149.58-18.05Q150.23-17.64 150.23-16.05L150.23-16.05Q150.23-13.75 149.08-13.75L149.08-13.75Q148.69-13.75 147.92-14.94Q147.16-16.13 146.35-16.70Q145.54-17.27 144.01-17.27Q142.48-17.27 141.63-16.56Q140.78-15.86 140.78-14.65Q140.78-13.44 142.14-12.50L142.14-12.50Q142.92-11.97 145.53-10.91Q148.14-9.84 149.37-8.77L149.37-8.77Q151.01-7.34 151.01-5.33Z M165.83-9.02L165.83-9.02Q163.29-9.02 161.71-7.79Q160.13-6.56 160.13-5.12L160.13-5.12L160.13-4.45Q160.17-4.22 160.17-4.06L160.17-4.06Q160.17-3.13 161.00-2.48Q161.83-1.84 162.65-1.84L162.65-1.84L163.27-1.84Q164.56-1.84 166.18-2.97L166.18-2.97Q167.35-3.79 167.35-5.04L167.35-5.04Q167.39-5.27 167.39-5.39L167.39-5.39L167.43-5.90L167.43-6.50L167.45-6.88L167.45-8.22Q167.45-9.08 166.94-9.08L166.94-9.08L166.46-9.08Q166.10-9.02 165.83-9.02ZM164.17-19.02L164.17-19.02L164.66-19.02Q168.74-19.02 170.24-16.54L170.24-16.54Q171.16-15.02 171.16-9.47Q171.16-3.93 171.32-3.40L171.32-3.40Q171.57-2.52 172.43-2.23L172.43-2.23Q173.84-1.74 173.84-1.56L173.84-1.56L173.84-1.27Q173.84-0.88 172.94-0.35Q172.04 0.18 170.28 0.18L170.28 0.18Q169.27 0.18 168.45-0.71Q167.63-1.60 167.37-1.60L167.37-1.60Q167.35-1.60 165.21-0.61Q163.06 0.39 161.83 0.39L161.83 0.39L160.91 0.39Q159.03 0.39 157.75-0.93Q156.48-2.25 156.48-3.79L156.48-3.79L156.48-4.28Q156.48-6.74 158.33-8.22L158.33-8.22Q159.60-9.24 161.98-9.90L161.98-9.90Q162.26-9.98 164.13-10.38Q166.01-10.78 166.42-10.98L166.42-10.98Q167.49-11.50 167.49-13.27Q167.49-15.04 166.53-16.06Q165.58-17.09 163.92-17.09Q162.26-17.09 161.03-15.27Q159.80-13.46 158.47-13.46L158.47-13.46Q158.17-13.46 157.73-13.89Q157.28-14.32 157.28-15.23L157.28-15.23Q157.28-16.66 158.80-17.56L158.80-17.56Q161.28-19.02 164.17-19.02Z M187.15-0.86L187.15-0.86Q187.15-0.14 184.64-0.14L184.64-0.14L182.84-0.20Q182.25-0.21 181.08-0.21L181.08-0.21Q179.26-0.21 179.26-1.15L179.26-1.15Q179.26-1.46 180.25-1.93Q181.24-2.40 181.48-2.98Q181.72-3.55 181.72-6.09L181.72-6.09L181.72-9.53L181.69-10.74L181.69-12.95Q181.69-14.55 181.46-15.26Q181.24-15.98 180.38-16.44Q179.52-16.89 179.52-17.09L179.52-17.09Q179.52-17.68 180.14-17.97L180.14-17.97Q181.39-18.54 183.56-18.54L183.56-18.54Q184.67-18.54 185.08-17.68L185.08-17.68Q185.75-16.33 185.83-16.33L185.83-16.33Q185.89-16.33 186.67-16.88L186.67-16.88Q189.38-18.83 191.57-18.85L191.57-18.85L192.17-18.85Q195.65-18.83 197.06-15.82L197.06-15.82Q197.76-14.30 197.76-6.86L197.76-6.86Q197.76-3.22 198.02-2.71Q198.29-2.21 199.29-1.74Q200.30-1.27 200.30-0.92L200.30-0.92Q200.30-0.10 194.95-0.10L194.95-0.10L194.36-0.10Q192.64-0.10 192.64-0.63Q192.64-1.15 193.25-1.72Q193.85-2.29 193.98-2.62Q194.11-2.95 194.11-4.22Q194.11-5.49 194.09-6.09L194.09-6.09L194.05-7.30L194.05-9.82Q194.05-13.85 193.24-15.22Q192.43-16.60 190.32-16.60L190.32-16.60Q189.26-16.60 188.09-15.99Q186.92-15.37 186.20-14.36Q185.47-13.34 185.47-9.20L185.47-9.20L185.36-5.53Q185.36-3.65 185.63-2.94Q185.90-2.23 186.53-1.66Q187.15-1.09 187.15-0.86Z M205.14-17.44L205.14-17.44Q205.14-17.89 206.13-18.44Q207.11-18.98 207.39-19.38Q207.68-19.79 208.39-21.78Q209.10-23.77 209.89-23.77Q210.69-23.77 210.96-23.14L210.96-23.14Q211.08-22.85 211.25-21.55Q211.43-20.25 211.90-19.72Q212.37-19.18 214.14-18.77Q215.92-18.36 215.92-17.65Q215.92-16.93 213.99-16.63Q212.05-16.33 211.72-15.74L211.72-15.74Q211.10-14.67 211.10-9.68Q211.10-4.69 211.63-3.45Q212.17-2.21 213.28-2.21L213.28-2.21Q213.91-2.21 214.99-2.55Q216.08-2.89 216.29-2.89L216.29-2.89Q216.94-2.89 216.94-2.13L216.94-2.13Q216.94-1.19 214.87-0.27L214.87-0.27Q213.67 0.25 212.36 0.25Q211.04 0.25 209.95-0.35Q208.87-0.96 208.30-2.03L208.30-2.03Q207.46-3.61 207.46-8.73L207.46-8.73L207.46-10.35L207.42-11.91Q207.42-14.39 207.04-15.31Q206.66-16.23 206.17-16.54L206.17-16.54Q205.14-17.19 205.14-17.44Z M234.90-26.43L234.90-26.43Q234.90-26.97 236.54-27.15L236.54-27.15Q237.30-27.23 244.90-27.23L244.90-27.23L250.72-27.25Q252.55-27.25 253.38-26.36Q254.21-25.47 254.21-23.26L254.21-23.26Q254.21-22.30 253.78-22.30L253.78-22.30Q253.61-22.30 252.74-23.11Q251.87-23.91 251.07-24.12L251.07-24.12Q248.43-24.86 245.21-24.86L245.21-24.86Q243.51-24.86 242.71-23.11Q241.91-21.35 241.91-18.36L241.91-18.36Q241.91-16.66 242.93-15.97Q243.96-15.27 245.95-15.27L245.95-15.27Q246.69-15.27 247.81-16.12Q248.92-16.97 249.37-16.97Q249.82-16.97 250.26-16.31Q250.70-15.64 250.70-13.73Q250.70-11.82 250.07-11.19L250.07-11.19L249.58-10.96Q249.23-10.96 247.49-12.21L247.49-12.21Q246.58-12.87 244.72-12.87Q242.86-12.87 242.10-11.72L242.10-11.72Q241.60-10.96 241.60-7.78Q241.60-4.61 242.65-3.18L242.65-3.18Q243.29-2.32 246.36-2.32Q249.43-2.32 250.98-2.93Q252.53-3.54 253.57-4.50Q254.60-5.47 254.86-5.47L254.86-5.47Q255.25-5.47 255.25-4.84L255.25-4.84Q255.25-1.35 253.80-0.41L253.80-0.41Q253.12 0.04 247.38 0.04L247.38 0.04L243.92 0.04Q237.22 0.04 236.00-0.10Q234.78-0.23 234.78-0.77Q234.78-1.31 235.72-1.94Q236.65-2.58 236.91-3.34L236.91-3.34Q237.38-4.73 237.38-12.46L237.38-12.46L237.45-20.12Q237.45-23.40 237.22-24.13Q236.99-24.86 235.94-25.29Q234.90-25.72 234.90-26.43Z M260.79-17.44L260.79-17.44Q260.79-17.89 261.78-18.44Q262.76-18.98 263.05-19.38Q263.33-19.79 264.04-21.78Q264.76-23.77 265.55-23.77Q266.34-23.77 266.61-23.14L266.61-23.14Q266.73-22.85 266.90-21.55Q267.08-20.25 267.55-19.72Q268.02-19.18 269.79-18.77Q271.57-18.36 271.57-17.65Q271.57-16.93 269.64-16.63Q267.70-16.33 267.37-15.74L267.37-15.74Q266.75-14.67 266.75-9.68Q266.75-4.69 267.28-3.45Q267.82-2.21 268.94-2.21L268.94-2.21Q269.56-2.21 270.64-2.55Q271.73-2.89 271.94-2.89L271.94-2.89Q272.59-2.89 272.59-2.13L272.59-2.13Q272.59-1.19 270.52-0.27L270.52-0.27Q269.33 0.25 268.01 0.25Q266.69 0.25 265.60-0.35Q264.52-0.96 263.95-2.03L263.95-2.03Q263.11-3.61 263.11-8.73L263.11-8.73L263.11-10.35L263.08-11.91Q263.08-14.39 262.69-15.31Q262.31-16.23 261.83-16.54L261.83-16.54Q260.79-17.19 260.79-17.44Z M277.93-1.02L277.93-1.02Q277.93-1.37 278.80-2.24Q279.67-3.11 279.84-4.22Q280.01-5.33 280.01-13.94Q280.01-22.54 279.67-24.90L279.67-24.90Q279.52-26.00 278.99-26.37L278.99-26.37Q277.60-27.34 277.60-27.42L277.60-27.42Q277.60-27.77 278.54-28.22Q279.48-28.67 281.57-28.67L281.57-28.67Q282.93-28.67 283.31-27.71L283.31-27.71Q283.58-27.01 283.58-24.53L283.58-24.53L283.52-22.38Q283.46-20.21 283.46-19.47L283.46-19.47Q283.46-17.17 284.11-17.17L284.11-17.17Q284.22-17.17 286.34-17.99Q288.46-18.81 289.95-18.81L289.95-18.81Q293.11-18.81 294.52-16.52L294.52-16.52Q295.65-14.65 295.65-9.57L295.65-9.57L295.63-8.11L295.61-7.38L295.59-5.20Q295.59-3.24 295.88-2.74Q296.18-2.25 297.01-1.65Q297.84-1.05 297.84-0.82L297.84-0.82Q297.84-0.06 295.02-0.06L295.02-0.06L294.34-0.02L292.27 0.06Q290.51 0.06 290.51-0.61L290.51-0.61Q290.51-0.92 291.15-1.70Q291.78-2.48 291.92-2.78Q292.06-3.09 292.06-5.84L292.06-5.84L292.02-7.27L292.04-9.47Q292.04-13.89 291.25-15.20Q290.45-16.50 288.82-16.50Q287.19-16.50 285.89-15.77Q284.59-15.04 284.13-13.95Q283.66-12.85 283.66-8.10Q283.66-3.34 283.90-2.83Q284.15-2.32 284.87-1.71Q285.59-1.09 285.59-0.88L285.59-0.88Q285.59-0.06 281.76-0.06Q277.93-0.06 277.93-1.02Z M305.25-24.92L305.25-24.92L305.25-25.47Q305.29-25.63 305.29-25.93Q305.29-26.23 305.94-26.88Q306.58-27.52 307.25-27.52L307.25-27.52L307.64-27.58L307.95-27.58Q308.75-27.58 309.44-27.00Q310.14-26.43 310.14-25.72L310.14-25.72L310.20-25.25L310.20-25.08L310.12-24.63Q310.12-24.04 309.41-23.46Q308.69-22.87 308.11-22.87L308.11-22.87L307.64-22.81L307.56-22.81L307.48-22.83L307.33-22.83Q307.17-22.87 307.09-22.87L307.09-22.87Q306.52-22.87 305.89-23.51Q305.25-24.14 305.25-24.92ZM306.00 0.14L304.83 0.14Q303.54 0.14 303.54-0.64L303.54-0.64Q303.54-1.15 304.55-1.61Q305.57-2.07 305.81-2.94Q306.06-3.81 306.06-9.02L306.06-9.02L306.08-9.63L306.08-10.23L306.09-10.84L306.09-12.05L306.04-13.85Q306.04-15.41 305.69-15.82Q305.35-16.23 304.36-16.50Q303.36-16.78 303.36-17.29L303.36-17.29Q303.36-17.70 303.79-17.95L303.79-17.95Q305.16-18.77 308.26-18.77L308.26-18.77Q309.40-18.77 309.59-17.97L309.59-17.97Q309.69-17.56 309.69-10.53Q309.69-3.50 309.90-2.74Q310.12-1.99 311.22-1.55Q312.33-1.11 312.33-0.76L312.33-0.76L312.33-0.55Q312.33 0.02 310.63 0.02L310.63 0.02Q310.04 0.06 309.77 0.06L309.77 0.06L308.89 0.08L308.03 0.08L306.00 0.14Z M333.36-15.70L333.36-15.70Q333.34-14.36 332.79-13.75L332.79-13.75Q332.40-13.32 331.91-13.32L331.91-13.32Q331.70-13.32 331.46-13.40L331.46-13.40Q330.68-13.65 330.08-14.77L330.08-14.77Q328.79-17.07 326.43-17.07Q324.08-17.07 322.82-14.90Q321.56-12.73 321.56-9.31Q321.56-5.88 323.16-3.85Q324.76-1.82 327.75-1.82L327.75-1.82Q329.51-1.82 331.36-3.01L331.36-3.01Q332.44-3.69 332.91-3.69Q333.38-3.69 333.38-3.30L333.38-3.30L333.38-2.99Q333.38-2.01 331.33-0.83Q329.29 0.35 327.15 0.35L327.15 0.35L326.70 0.35Q322.52 0.35 320.11-2.23Q317.71-4.80 317.71-8.96Q317.71-13.11 320.02-15.82L320.02-15.82Q321.19-17.21 323.05-18.05Q324.92-18.89 326.95-18.89L326.95-18.89L327.40-18.89Q330.39-18.89 332.22-17.75L332.22-17.75Q333.36-17.05 333.36-15.70Z M352.88-5.33L352.88-5.33L352.88-4.80Q352.88-3.85 352.38-2.80Q351.87-1.76 350.83-1.04L350.83-1.04Q348.90 0.33 346.07 0.33L346.07 0.33L345.54 0.33Q341.87 0.33 339.93-0.68L339.93-0.68Q339.02-1.17 339.02-3.03L339.02-3.03L339.02-3.50Q339.02-5.51 340.09-5.51L340.09-5.51Q340.60-5.51 341.42-4.13Q342.24-2.75 342.82-2.29L342.82-2.29Q344.00-1.35 345.89-1.35Q347.79-1.35 348.67-2.17Q349.56-2.99 349.56-4.21Q349.56-5.43 348.35-6.37L348.35-6.37Q347.61-6.93 344.71-8.17Q341.81-9.41 340.63-10.63Q339.45-11.86 339.45-13.96Q339.45-16.07 341.26-17.52Q343.08-18.96 345.87-18.96L345.87-18.96L346.40-18.96Q350.03-18.96 351.46-18.05L351.46-18.05Q352.10-17.64 352.10-16.05L352.10-16.05Q352.10-13.75 350.95-13.75L350.95-13.75Q350.56-13.75 349.80-14.94Q349.04-16.13 348.23-16.70Q347.41-17.27 345.88-17.27Q344.35-17.27 343.50-16.56Q342.65-15.86 342.65-14.65Q342.65-13.44 344.02-12.50L344.02-12.50Q344.80-11.97 347.40-10.91Q350.01-9.84 351.24-8.77L351.24-8.77Q352.88-7.34 352.88-5.33Z M380.34-25.33L380.34-25.33L379.98-25.33Q378.17-25.33 377.95-24.65L377.95-24.65Q377.82-24.18 377.82-21.95L377.82-21.95L377.82-19.55L377.80-19.04L377.80-17.13Q377.80-15.53 378.05-15.25Q378.30-14.98 379.30-14.98L379.30-14.98L380.69-14.98Q383.68-14.98 385.02-16.11L385.02-16.11Q386.78-17.60 386.78-19.98L386.78-19.98L386.78-20.53Q386.78-22.99 384.77-24.38L384.77-24.38Q383.38-25.33 380.34-25.33ZM381.49-13.20L381.49-13.20L379.73-13.20Q378.17-13.20 377.97-12.75Q377.78-12.30 377.78-9.57L377.78-9.57L377.78-4.84Q377.78-2.66 378.01-2.32L378.01-2.32Q378.46-1.68 380.51-1.68L380.51-1.68L381.72-1.68Q386.22-1.68 387.62-4.61L387.62-4.61Q388.17-5.78 388.17-7.11L388.17-7.11L388.17-7.32L388.15-7.54Q388.15-10.29 386.33-11.75Q384.52-13.20 381.49-13.20ZM376.35 0.06L374.36 0.06Q371.02 0.06 371.02-0.63L371.02-0.63Q371.02-1.21 372.09-1.61Q373.17-2.01 373.49-2.86Q373.81-3.71 373.81-8.01L373.81-8.01L373.83-8.52Q373.85-9.02 373.85-9.53L373.85-9.53L373.87-10.04L373.87-11.07L373.85-12.60Q373.85-13.38 373.85-14.16L373.85-14.16Q373.85-22.79 373.42-24.08L373.42-24.08Q373.15-24.88 371.98-25.32Q370.80-25.76 370.80-26.29L370.80-26.29Q370.80-27.05 374.91-27.05L374.91-27.05L377.93-27.11L381.00-27.11Q385.51-27.11 387.98-25.44Q390.45-23.77 390.45-20.53L390.45-20.53Q390.45-18.57 389.49-17.22Q388.52-15.86 387.39-15.17Q386.25-14.47 386.25-14.34Q386.25-14.20 387.27-13.73Q388.29-13.26 388.38-13.20L388.38-13.20Q389.73-12.44 390.61-11.33L390.61-11.33Q392.11-9.43 392.11-7.25L392.11-7.25L392.11-6.74Q392.11-5.27 391.45-3.95L391.45-3.95Q390.18-1.48 386.98-0.47L386.98-0.47Q384.85 0.20 382.48 0.20L382.48 0.20L380.94 0.20L377.88 0.12L376.35 0.06Z M407.42-17.32L407.42-17.32L407.01-17.32Q404.90-17.32 403.44-15.06L403.44-15.06Q402.29-13.28 402.29-9.73L402.29-9.73L402.29-9.49L402.30-9.24Q402.30-3.85 405.20-1.95L405.20-1.95Q406.23-1.29 407.52-1.29L407.52-1.29L407.73-1.31Q409.82-1.31 411.09-3.28Q412.36-5.25 412.36-8.40L412.36-8.40L412.36-9.61Q412.36-13.01 410.97-15.17Q409.57-17.32 407.42-17.32ZM416.52-9.92L416.52-9.92L416.52-8.95Q416.52-7.15 415.78-5.27L415.78-5.27Q414.36-1.62 410.84-0.25L410.84-0.25Q409.14 0.41 407.58 0.41L407.58 0.41L407.27 0.41L406.93 0.39Q403.26 0.39 400.78-2.09L400.78-2.09Q399.65-3.22 398.99-5.12Q398.34-7.01 398.34-8.67L398.34-8.67L398.34-9.63Q398.34-11.46 399.07-13.32Q399.80-15.18 400.95-16.38Q402.09-17.58 403.83-18.29Q405.57-19.00 407.19-19.00L407.19-19.00L408.14-19.00Q411.52-19.00 414.02-16.50L414.02-16.50Q415.10-15.43 415.81-13.61Q416.52-11.80 416.52-9.92Z M448.47-18.52L448.47-18.52Q450.29-18.52 450.29-17.87L450.29-17.87L450.29-17.54Q450.29-17.50 449.57-16.30Q448.84-15.10 448.33-13.89Q447.81-12.68 446.22-7.77Q444.62-2.87 443.91-1.62Q443.20-0.37 442.03-0.37L442.03-0.37Q441.23-0.37 440.39-1.91Q439.55-3.46 437.99-7.51Q436.44-11.56 436.05-11.56L436.05-11.56Q435.86-11.56 433.97-7.16Q432.09-2.75 431.71-2.07L431.71-2.07Q430.87-0.55 430.05-0.55L430.05-0.55Q428.94-0.55 427.98-2.62L427.98-2.62Q427.44-3.79 426.85-5.70L426.85-5.70Q424.72-12.64 422.53-16.13L422.53-16.13Q421.89-17.15 421.89-17.46L421.89-17.46Q421.89-18.57 424.26-18.57Q426.64-18.57 427.28-18.14Q427.93-17.71 427.93-16.56L427.93-16.56L427.91-16.05L427.85-15.49Q427.85-13.20 429.20-9.45Q430.54-5.70 431.34-5.70L431.34-5.70Q431.99-5.70 432.96-8.53Q433.94-11.35 433.94-13.24L433.94-13.24Q433.94-13.89 433.72-14.92Q433.49-15.96 433.49-16.41Q433.49-16.86 434.32-17.53Q435.15-18.20 436.61-18.20Q438.06-18.20 439.02-17.07L439.02-17.07Q439.51-16.50 439.51-15.45L439.51-15.45L439.47-14.86L439.45-14.28Q439.45-12.79 441.38-7.66L441.38-7.66Q442.03-5.94 442.69-5.94L442.69-5.94Q443.53-5.94 444.77-9.51Q446.01-13.09 446.01-15.12L446.01-15.12L445.54-17.17Q445.54-18.52 448.47-18.52Z M457.65-3.14Q457.98-5.14 457.98-14.60Q457.98-24.06 457.77-25.08Q457.57-26.09 456.69-26.48L456.69-26.48Q455.42-27.03 455.42-27.43Q455.42-27.83 455.91-28.07L455.91-28.07Q457.49-28.83 460.54-28.83L460.54-28.83Q461.69-28.83 461.85-27.64L461.85-27.64Q461.89-27.36 461.89-22.25L461.89-22.25L461.87-21.04L461.87-19.41L461.83-17.81L461.83-16.19Q461.83-4.59 461.97-3.51Q462.12-2.42 462.96-1.89L462.96-1.89Q464.50-0.92 464.50-0.78L464.50-0.78Q464.50-0.08 461.77-0.08L461.77-0.08L460.99-0.04L457.41 0.04L456.59 0.04Q455.56 0.04 455.56-0.53L455.56-0.53Q455.56-0.98 456.52-1.54Q457.47-2.11 457.65-3.14L457.65-3.14Z"></path></g>
</svg>
</g></svg>